<svg width="300" height="300" viewBox="0 0 300 300" fill="none" xmlns="http://www.w3.org/2000/svg">
<rect x="5" y="5" width="190" height="190" rx="43" fill="#363636" stroke="white" stroke-width="10"/>
<g filter="url(#filter0_d_1_9)">
<path d="M124.562 143L116.75 120.5H83.1875L75.375 143H56.9375L89.0625 54.9375H110.812L142.812 143H124.562ZM99.9375 68.5L99.5625 69.875C99.1458 71.375 98.6458 73.0833 98.0625 75C97.4792 76.9167 93.8958 87.4583 87.3125 106.625H112.625L103.938 81.3125L101.25 72.8125L99.9375 68.5Z" fill="white"/>
</g>
<rect x="105" y="105" width="190" height="190" rx="43" fill="white" stroke="black" stroke-width="10"/>
<g filter="url(#filter1_d_1_9)">
<path d="M224.562 243L216.75 220.5H183.188L175.375 243H156.938L189.062 154.938H210.812L242.812 243H224.562ZM199.938 168.5L199.562 169.875C199.146 171.375 198.646 173.083 198.062 175C197.479 176.917 193.896 187.458 187.312 206.625H212.625L203.938 181.312L201.25 172.812L199.938 168.5Z" fill="black"/>
</g>
<defs>
<filter id="filter0_d_1_9" x="52.9375" y="54.9375" width="93.875" height="96.0625" filterUnits="userSpaceOnUse" color-interpolation-filters="sRGB">
<feFlood flood-opacity="0" result="BackgroundImageFix"/>
<feColorMatrix in="SourceAlpha" type="matrix" values="0 0 0 0 0 0 0 0 0 0 0 0 0 0 0 0 0 0 127 0" result="hardAlpha"/>
<feOffset dy="4"/>
<feGaussianBlur stdDeviation="2"/>
<feComposite in2="hardAlpha" operator="out"/>
<feColorMatrix type="matrix" values="0 0 0 0 0 0 0 0 0 0 0 0 0 0 0 0 0 0 0.25 0"/>
<feBlend mode="normal" in2="BackgroundImageFix" result="effect1_dropShadow_1_9"/>
<feBlend mode="normal" in="SourceGraphic" in2="effect1_dropShadow_1_9" result="shape"/>
</filter>
<filter id="filter1_d_1_9" x="152.938" y="154.938" width="93.875" height="96.0625" filterUnits="userSpaceOnUse" color-interpolation-filters="sRGB">
<feFlood flood-opacity="0" result="BackgroundImageFix"/>
<feColorMatrix in="SourceAlpha" type="matrix" values="0 0 0 0 0 0 0 0 0 0 0 0 0 0 0 0 0 0 127 0" result="hardAlpha"/>
<feOffset dy="4"/>
<feGaussianBlur stdDeviation="2"/>
<feComposite in2="hardAlpha" operator="out"/>
<feColorMatrix type="matrix" values="0 0 0 0 0 0 0 0 0 0 0 0 0 0 0 0 0 0 0.25 0"/>
<feBlend mode="normal" in2="BackgroundImageFix" result="effect1_dropShadow_1_9"/>
<feBlend mode="normal" in="SourceGraphic" in2="effect1_dropShadow_1_9" result="shape"/>
</filter>
</defs>
</svg>
