<svg width="320" height="320" viewBox="0 0 320 320" fill="none" xmlns="http://www.w3.org/2000/svg">
<g filter="url(#filter0_d_1_9)">
<rect x="10" y="10" width="200" height="200" rx="48" fill="url(#paint0_linear_1_9)"/>
<rect x="15" y="15" width="190" height="190" rx="43" stroke="url(#paint1_linear_1_9)" stroke-width="10"/>
</g>
<g filter="url(#filter1_d_1_9)">
<path d="M134.562 153L126.75 130.5H93.1875L85.375 153H66.9375L99.0625 64.9375H120.812L152.812 153H134.562ZM109.938 78.5L109.562 79.875C109.146 81.375 108.646 83.0833 108.062 85C107.479 86.9167 103.896 97.4583 97.3125 116.625H122.625L113.938 91.3125L111.25 82.8125L109.938 78.5Z" fill="url(#paint2_linear_1_9)" shape-rendering="crispEdges"/>
</g>
<g filter="url(#filter2_d_1_9)">
<rect x="110" y="110" width="200" height="200" rx="48" fill="url(#paint3_linear_1_9)"/>
<rect x="115" y="115" width="190" height="190" rx="43" stroke="url(#paint4_linear_1_9)" stroke-width="10"/>
</g>
<g filter="url(#filter3_d_1_9)">
<path d="M234.562 253L226.75 230.5H193.188L185.375 253H166.938L199.062 164.938H220.812L252.812 253H234.562ZM209.938 178.5L209.562 179.875C209.146 181.375 208.646 183.083 208.062 185C207.479 186.917 203.896 197.458 197.312 216.625H222.625L213.938 191.312L211.25 182.812L209.938 178.5Z" fill="url(#paint5_linear_1_9)" shape-rendering="crispEdges"/>
</g>
<defs>
<filter id="filter0_d_1_9" x="0" y="0" width="220" height="220" filterUnits="userSpaceOnUse" color-interpolation-filters="sRGB">
<feFlood flood-opacity="0" result="BackgroundImageFix"/>
<feColorMatrix in="SourceAlpha" type="matrix" values="0 0 0 0 0 0 0 0 0 0 0 0 0 0 0 0 0 0 127 0" result="hardAlpha"/>
<feOffset/>
<feGaussianBlur stdDeviation="5"/>
<feComposite in2="hardAlpha" operator="out"/>
<feColorMatrix type="matrix" values="0 0 0 0 0 0 0 0 0 0 0 0 0 0 0 0 0 0 0.25 0"/>
<feBlend mode="normal" in2="BackgroundImageFix" result="effect1_dropShadow_1_9"/>
<feBlend mode="normal" in="SourceGraphic" in2="effect1_dropShadow_1_9" result="shape"/>
</filter>
<filter id="filter1_d_1_9" x="62.9375" y="64.9375" width="93.875" height="96.0625" filterUnits="userSpaceOnUse" color-interpolation-filters="sRGB">
<feFlood flood-opacity="0" result="BackgroundImageFix"/>
<feColorMatrix in="SourceAlpha" type="matrix" values="0 0 0 0 0 0 0 0 0 0 0 0 0 0 0 0 0 0 127 0" result="hardAlpha"/>
<feOffset dy="4"/>
<feGaussianBlur stdDeviation="2"/>
<feComposite in2="hardAlpha" operator="out"/>
<feColorMatrix type="matrix" values="0 0 0 0 0 0 0 0 0 0 0 0 0 0 0 0 0 0 0.25 0"/>
<feBlend mode="normal" in2="BackgroundImageFix" result="effect1_dropShadow_1_9"/>
<feBlend mode="normal" in="SourceGraphic" in2="effect1_dropShadow_1_9" result="shape"/>
</filter>
<filter id="filter2_d_1_9" x="100" y="100" width="220" height="220" filterUnits="userSpaceOnUse" color-interpolation-filters="sRGB">
<feFlood flood-opacity="0" result="BackgroundImageFix"/>
<feColorMatrix in="SourceAlpha" type="matrix" values="0 0 0 0 0 0 0 0 0 0 0 0 0 0 0 0 0 0 127 0" result="hardAlpha"/>
<feOffset/>
<feGaussianBlur stdDeviation="5"/>
<feComposite in2="hardAlpha" operator="out"/>
<feColorMatrix type="matrix" values="0 0 0 0 0 0 0 0 0 0 0 0 0 0 0 0 0 0 0.25 0"/>
<feBlend mode="normal" in2="BackgroundImageFix" result="effect1_dropShadow_1_9"/>
<feBlend mode="normal" in="SourceGraphic" in2="effect1_dropShadow_1_9" result="shape"/>
</filter>
<filter id="filter3_d_1_9" x="162.938" y="164.938" width="93.875" height="96.0625" filterUnits="userSpaceOnUse" color-interpolation-filters="sRGB">
<feFlood flood-opacity="0" result="BackgroundImageFix"/>
<feColorMatrix in="SourceAlpha" type="matrix" values="0 0 0 0 0 0 0 0 0 0 0 0 0 0 0 0 0 0 127 0" result="hardAlpha"/>
<feOffset dy="4"/>
<feGaussianBlur stdDeviation="2"/>
<feComposite in2="hardAlpha" operator="out"/>
<feColorMatrix type="matrix" values="0 0 0 0 0 0 0 0 0 0 0 0 0 0 0 0 0 0 0.25 0"/>
<feBlend mode="normal" in2="BackgroundImageFix" result="effect1_dropShadow_1_9"/>
<feBlend mode="normal" in="SourceGraphic" in2="effect1_dropShadow_1_9" result="shape"/>
</filter>
<linearGradient id="paint0_linear_1_9" x1="110" y1="10" x2="110" y2="210" gradientUnits="userSpaceOnUse">
<stop stop-color="#D9D9D9"/>
<stop offset="0.369792" stop-color="#D9D9D9"/>
<stop offset="1" stop-color="#F4F4F4"/>
</linearGradient>
<linearGradient id="paint1_linear_1_9" x1="110" y1="10" x2="110" y2="210" gradientUnits="userSpaceOnUse">
<stop stop-color="#6B6B6B"/>
<stop offset="1" stop-color="#DBDBDB"/>
</linearGradient>
<linearGradient id="paint2_linear_1_9" x1="110" y1="35" x2="110" y2="185" gradientUnits="userSpaceOnUse">
<stop/>
<stop offset="1" stop-opacity="0.45"/>
</linearGradient>
<linearGradient id="paint3_linear_1_9" x1="210" y1="110" x2="210" y2="310" gradientUnits="userSpaceOnUse">
<stop stop-color="#6CC1FF"/>
<stop offset="0.0001" stop-color="#28A5FF"/>
<stop offset="0.421875" stop-color="#28A5FF"/>
<stop offset="1" stop-color="#99D4FF"/>
</linearGradient>
<linearGradient id="paint4_linear_1_9" x1="210" y1="110" x2="210" y2="310" gradientUnits="userSpaceOnUse">
<stop stop-color="#2C79EC"/>
<stop offset="1" stop-color="#D7E7FF"/>
</linearGradient>
<linearGradient id="paint5_linear_1_9" x1="210" y1="135" x2="210" y2="285" gradientUnits="userSpaceOnUse">
<stop stop-color="white"/>
<stop offset="1" stop-color="white" stop-opacity="0.81"/>
</linearGradient>
</defs>
</svg>
